<?xml version="1.0" encoding="UTF-8" standalone="no"?><svg xmlns:svg="http://www.w3.org/2000/svg" xmlns="http://www.w3.org/2000/svg" width="512" height="512" viewBox="0 0 64 64" version="1.1"><path d="M45.225,43c-4.989,0-8.44-5.5-13.224-5.5S23.468,43,18.776,43C12.62,43,8.074,37.656,8,28.5,7.954,22.815,9.805,21,17.8,21S28.128,24,32,24s6.214-3,14.2-3,9.842,1.815,9.8,7.5C55.926,37.656,51.381,43,45.225,43ZM21.714,28c-4.857.193-6.857,2.846-6.857,3.5s3.22,2.5,6.367,2.5,6.857-1.057,6.857-2C28.082,30.948,26.3,27.818,21.714,28Zm20.572,0c-4.583-.182-6.367,2.948-6.367,4,0,0.943,3.709,2,6.857,2s6.367-1.846,6.367-2.5S47.143,28.193,42.286,28Z" paint-order="stroke" stroke="#670c83" stroke-width="2" fill="#fff" filter="drop-shadow(0.6px 1.6px 0 #0002"/></svg>
